<svg xmlns="http://www.w3.org/2000/svg" width="96" height="96" viewBox="0 0 96 96">
  <defs>
    <linearGradient id="bg" x1="12" y1="8" x2="84" y2="88" gradientUnits="userSpaceOnUse">
      <stop stop-color="#201043"/>
      <stop offset=".48" stop-color="#7c3aed"/>
      <stop offset="1" stop-color="#06b6d4"/>
    </linearGradient>
    <linearGradient id="wing" x1="19" y1="16" x2="76" y2="84" gradientUnits="userSpaceOnUse">
      <stop stop-color="#f8e7ff"/>
      <stop offset=".5" stop-color="#f472ff"/>
      <stop offset="1" stop-color="#38d5ff"/>
    </linearGradient>
  </defs>
  <rect width="96" height="96" rx="22" fill="url(#bg)"/>
  <path d="M22 61c10-28 25-42 45-43-4 11-13 22-26 32 15-6 27-7 37-2-13 12-29 20-49 24l-7-11Z" fill="url(#wing)" opacity=".95"/>
  <path d="M27 35c10 5 18 13 25 25-13-4-24-11-33-22l8-3Z" fill="#f9a8ff" opacity=".82"/>
  <circle cx="51" cy="45" r="13" fill="#fff7ff"/>
  <path d="M41 75c2-18 6-30 11-38 7 9 11 21 12 38H41Z" fill="#f5f3ff"/>
  <path d="M48 54h11l-5 15-6-15Z" fill="#ff4de3"/>
  <path d="M28 21c8 5 15 13 21 23M72 27c-7 11-17 21-30 29" stroke="#ffffff" stroke-width="3" stroke-linecap="round" opacity=".65"/>
</svg>
